<?xml version="1.0" encoding="utf-8"?>
<!-- Generator: Adobe Illustrator 23.0.1, SVG Export Plug-In . SVG Version: 6.00 Build 0)  -->
<svg version="1.1" id="Layer_1" xmlns="http://www.w3.org/2000/svg" xmlns:xlink="http://www.w3.org/1999/xlink" x="0px" y="0px"
	 viewBox="0 0 48 48" style="enable-background:new 0 0 48 48;" xml:space="preserve">
<style type="text/css">
	.st0{fill:#FFFFFF;}
	.st1{display:none;fill:none;}
	.st2{display:none;}
</style>
<rect width="48" height="48"/>
<path class="st0" d="M19.1,31.3c-1.4,0-2.4,1.1-2.4,2.4c0,1.4,1.1,2.4,2.4,2.4c1.4,0,2.4-1.1,2.4-2.4C21.6,32.4,20.5,31.3,19.1,31.3
	z M11.8,11.8v2.4h2.4l4.4,9.3l-1.7,3c-0.2,0.4-0.3,0.8-0.3,1.2c0,1.4,1.1,2.4,2.4,2.4h14.7v-2.4H19.6c-0.2,0-0.3-0.1-0.3-0.3
	c0-0.1,0-0.1,0-0.1l1.1-2h9.1c0.9,0,1.7-0.5,2.1-1.3l4.4-7.9c0.1-0.2,0.2-0.4,0.2-0.6c0-0.7-0.6-1.2-1.2-1.2H16.9l-1.2-2.4
	C15.8,11.8,11.8,11.8,11.8,11.8z M31.3,31.3c-1.4,0-2.4,1.1-2.4,2.4c0,1.4,1.1,2.4,2.4,2.4s2.4-1.1,2.4-2.4
	C33.8,32.4,32.7,31.3,31.3,31.3z"/>
<path class="st1" d="M0,0h48v48H0V0z"/>
<path class="st2" d="M61.3,2.7"/>
</svg>
